<?xml version="1.0" standalone="no"?>
<!DOCTYPE svg PUBLIC "-//W3C//DTD SVG 20010904//EN"
 "http://www.w3.org/TR/2001/REC-SVG-20010904/DTD/svg10.dtd">
<svg version="1.0" xmlns="http://www.w3.org/2000/svg"
 width="512.000000pt" height="512.000000pt" viewBox="0 0 512.000000 512.000000"
 preserveAspectRatio="xMidYMid meet">
<metadata>
Created by potrace 1.11, written by Peter Selinger 2001-2013
</metadata>
<g transform="translate(0.000000,512.000000) scale(0.100000,-0.100000)"
fill="#000000" stroke="none">
<path d="M2455 5104 c-122 -24 -382 -127 -390 -155 -6 -18 -95 -52 -169 -64
-59 -10 -63 -14 -73 -63 -17 -93 -3 -440 23 -525 8 -25 31 -35 141 -56 54 -11
121 -28 148 -39 28 -11 52 -20 55 -20 3 0 23 -5 45 -12 22 -6 56 -14 75 -17
62 -9 77 -19 78 -50 1 -49 -19 -64 -91 -69 -36 -2 -86 -8 -112 -13 -45 -8 -48
-8 -83 28 -29 28 -60 45 -139 71 -101 34 -102 35 -100 65 2 27 -2 31 -49 46
-101 33 -302 40 -384 14 -10 -3 -28 -8 -40 -10 -40 -8 -159 -67 -181 -91 l-22
-23 42 -54 c22 -30 41 -57 41 -61 0 -4 -13 -26 -29 -49 -98 -144 -212 -413
-225 -532 -3 -22 -8 -67 -12 -100 -4 -33 -8 -113 -8 -177 -1 -64 -4 -119 -7
-122 -2 -3 -17 -7 -33 -10 -16 -3 -34 -10 -40 -16 -13 -13 -15 -188 -3 -240 5
-19 10 -48 13 -65 2 -16 6 -41 9 -54 4 -23 9 -151 5 -161 -1 -3 -3 -12 -5 -20
-1 -8 -16 -30 -32 -47 -23 -25 -38 -59 -61 -145 -17 -62 -33 -131 -36 -153 -4
-22 -9 -53 -12 -68 -13 -60 -11 -112 3 -129 8 -9 13 -28 10 -45 -6 -43 11 -93
36 -104 12 -5 33 -16 46 -24 24 -13 81 -13 164 0 23 4 39 4 34 -1 -9 -9 41
-44 64 -44 9 0 22 -7 30 -16 7 -8 25 -22 40 -29 25 -13 32 -12 82 13 30 15 60
26 66 24 5 -2 -8 -29 -30 -60 -83 -118 -90 -131 -80 -151 6 -10 10 -26 10 -37
0 -23 4 -39 20 -79 38 -89 42 -108 28 -124 -8 -9 -23 -27 -33 -41 -10 -14 -55
-61 -99 -105 -126 -125 -147 -194 -83 -265 13 -14 28 -36 35 -50 12 -25 28
-75 24 -75 -1 0 2 -13 8 -28 10 -26 9 -29 -23 -42 -44 -19 -96 -87 -100 -132
-1 -6 -11 -21 -23 -33 -63 -58 -105 -219 -84 -317 2 -10 84 -55 121 -67 74
-24 191 -44 290 -51 211 -15 383 1 448 42 55 34 64 51 67 119 2 35 -1 67 -6
70 -5 3 -7 9 -4 14 3 5 8 23 10 39 2 16 15 47 30 69 25 38 40 92 26 92 -3 0
-7 17 -8 37 -1 20 -7 39 -14 43 -8 6 -4 16 14 35 14 15 31 39 39 54 7 14 15
28 18 31 8 8 31 72 41 115 5 22 16 54 24 72 8 17 15 33 15 36 0 2 8 22 17 43
9 22 17 41 18 44 2 6 10 24 48 115 17 39 31 89 33 112 1 23 9 50 19 59 17 17
74 132 74 148 -1 5 3 12 8 15 4 3 19 40 32 81 13 41 26 82 29 90 6 19 3 3 50
220 23 102 43 199 46 215 3 17 15 66 26 110 27 102 29 112 36 160 l6 41 -51
13 c-28 7 -51 16 -51 20 0 6 29 23 100 58 3 1 17 -15 33 -36 26 -37 35 -70 26
-99 -5 -17 66 -57 108 -61 20 -1 56 8 89 23 31 14 58 26 59 26 2 0 -3 -20 -11
-45 -7 -25 -13 -47 -14 -50 0 -3 0 -6 -1 -7 0 -2 -2 -14 -3 -28 -2 -14 -6 -45
-10 -70 -16 -110 -26 -235 -30 -360 -2 -36 -5 -72 -9 -80 -27 -59 -28 -248 -2
-313 5 -12 2 -22 -9 -30 -10 -7 -18 -19 -20 -27 -2 -8 -6 -22 -9 -30 -3 -8 -8
-28 -11 -45 -2 -16 -14 -73 -26 -125 -20 -88 -27 -219 -16 -315 4 -41 39 -115
70 -148 l25 -27 -34 -37 c-19 -21 -35 -42 -36 -48 0 -5 -3 -19 -6 -30 -10 -41
-2 -70 26 -100 35 -37 85 -105 78 -105 -3 0 4 -35 15 -77 22 -88 50 -122 126
-156 108 -47 482 -57 637 -16 22 6 47 13 55 14 39 8 91 37 105 59 12 18 14 42
11 109 -6 100 -20 140 -72 197 -34 37 -94 79 -94 65 0 -3 -9 -1 -20 5 -11 6
-20 18 -20 28 0 9 -12 30 -26 45 -24 26 -25 31 -13 55 23 44 103 132 120 132
8 0 21 48 24 90 2 29 -27 93 -57 124 -26 28 -49 73 -55 108 -6 36 24 88 100
172 16 17 40 50 53 73 14 23 34 45 44 48 27 9 28 31 7 110 -10 39 -21 81 -23
95 -3 14 -10 45 -16 70 -15 63 -19 135 -24 445 l-5 270 23 10 c15 7 23 19 23
35 1 28 12 29 70 5 35 -15 44 -29 25 -40 -6 -4 -7 -12 -3 -18 4 -6 6 -25 5
-42 -2 -20 4 -38 16 -48 32 -29 142 -41 165 -18 5 5 -1 26 -12 47 -12 21 -21
44 -21 50 0 21 35 41 63 37 89 -13 258 162 310 323 9 27 19 72 23 99 13 106
14 106 130 211 48 44 113 104 144 134 64 63 144 176 135 190 -3 6 -24 13 -46
16 -33 6 -39 10 -39 32 0 67 -135 259 -291 414 -92 90 -139 124 -273 198
l-101 55 -1 66 c-1 82 -19 109 -94 143 -50 22 -174 53 -225 55 -55 2 -148 0
-154 -3 -3 -3 -25 -7 -47 -10 -49 -8 -141 -39 -155 -53 -6 -6 -12 -19 -13 -29
-3 -19 -7 -22 -71 -52 -88 -42 -129 -68 -145 -94 -9 -16 -19 -25 -23 -22 -6 7
-76 12 -176 13 -52 1 -62 4 -57 16 3 9 0 15 -8 15 -9 0 -13 12 -13 35 1 33 3
35 52 46 27 6 109 33 180 59 72 26 146 51 165 54 91 19 129 36 134 64 5 27 -1
360 -8 437 -2 22 -4 55 -5 73 -2 47 -30 69 -98 78 -83 10 -141 29 -161 53 -16
19 -182 87 -182 74 0 -3 -6 -1 -12 4 -26 20 -196 55 -283 57 -33 2 -87 -3
-120 -10z m-710 -1380 c11 -8 16 -14 11 -14 -5 0 -4 -6 2 -12 5 -7 13 -32 17
-55 3 -23 15 -52 26 -64 10 -12 21 -37 25 -55 3 -19 10 -37 15 -40 5 -3 9 -13
9 -23 0 -20 113 -164 212 -269 37 -39 68 -80 68 -90 0 -10 9 -37 20 -60 11
-22 20 -47 20 -55 0 -7 3 -17 7 -21 4 -4 8 -13 9 -19 0 -10 15 -111 18 -126 1
-3 -17 -5 -39 -5 -33 -1 -40 -5 -41 -21 0 -33 17 -68 48 -96 l28 -26 -85 -1
c-105 0 -138 -16 -126 -59 4 -16 7 -36 5 -45 -1 -10 1 -18 6 -18 4 0 10 -8 14
-17 6 -21 25 -51 44 -71 21 -23 13 -38 -25 -50 -44 -14 -50 -10 -35 23 14 29
0 40 -75 56 -114 24 -109 24 -156 -24 -26 -26 -65 -86 -97 -148 -28 -57 -51
-104 -50 -104 1 0 -5 -18 -15 -40 -9 -22 -32 -78 -52 -125 -19 -47 -39 -89
-44 -94 -5 -6 -17 9 -29 37 -14 30 -32 53 -53 64 l-32 18 46 3 c47 3 66 20 73
65 1 9 5 19 8 23 4 3 3 16 -2 29 -5 13 -6 25 -3 28 9 10 -28 105 -63 164 -19
31 -32 64 -29 72 6 21 15 67 21 110 2 19 7 37 9 41 16 26 24 214 11 270 -3 14
-16 34 -28 45 -28 24 -30 56 -4 64 13 5 32 48 66 149 26 78 46 142 43 142 -3
0 0 7 7 15 7 8 9 15 6 15 -4 0 -2 9 3 19 6 10 13 52 16 92 8 110 14 165 21
186 16 49 46 116 56 123 14 11 74 7 93 -6z m1762 -27 c24 -40 162 -67 234 -47
33 10 36 7 152 -103 37 -36 110 -94 161 -129 l94 -64 -23 -22 c-13 -13 -56
-69 -96 -125 -89 -125 -113 -152 -153 -168 -28 -11 -163 -95 -176 -109 -3 -3
-21 -17 -40 -32 -46 -34 -103 -90 -170 -167 -71 -82 -72 -84 -58 -118 6 -15
12 -36 12 -47 1 -10 10 -24 21 -30 38 -21 66 -45 63 -53 -2 -4 -34 -9 -73 -9
-102 -3 -101 -2 -111 -24 -9 -18 -11 -18 -41 -3 -27 13 -32 20 -28 42 2 14 9
27 15 29 5 2 10 8 10 14 0 5 6 15 13 23 18 18 22 109 5 123 -15 12 -75 20
-157 21 -51 1 -53 2 -39 19 13 14 29 60 33 97 2 20 -15 30 -49 29 -30 -2 -34
1 -30 20 2 11 6 39 9 61 3 22 8 51 11 65 3 14 6 33 6 43 -1 9 2 17 6 17 4 0 9
12 10 26 4 45 34 95 76 126 48 34 124 131 132 168 3 14 16 48 29 75 14 28 32
77 40 110 8 33 20 61 25 63 5 2 19 23 29 48 20 44 43 56 58 31z m-2147 -1746
c-8 -17 -6 -20 20 -26 17 -4 30 -13 30 -21 0 -8 -3 -14 -7 -14 -5 0 -7 -18 -7
-40 2 -41 -15 -66 -40 -57 -8 3 -12 15 -9 31 4 21 1 26 -21 32 -31 7 -33 27
-6 54 11 11 20 26 20 33 0 16 9 27 22 27 5 0 4 -9 -2 -19z"/>
</g>
</svg>
